# Blender v2.79 (sub 0) OBJ File: 'tex.blend'
# www.blender.org
v 1.000000 -1.000000 -1.000000
v -1.000000 -1.000000 1.000000
v -1.000000 -1.000000 -1.000000
v 1.000000 1.000000 -0.999999
v 0.999999 1.000000 1.000001
v -1.000000 1.000000 1.000000
v -1.000000 1.000000 -1.000000
vt 0.500000 0.500000
vt 0.000000 0.000000
vt 0.500000 0.000000
vt 0.500000 1.000000
vt 0.000000 0.500000
vt 0.500000 0.500000
vt 1.000000 0.000000
vt 0.000000 0.500000
vt 0.000000 1.000000
vt 1.000000 0.500000
vn 0.0000 1.0000 0.0000
vn -1.0000 -0.0000 -0.0000
vn 0.0000 0.0000 -1.0000
s off
f 7/1/1 5/2/1 4/3/1
f 2/4/2 7/5/2 3/6/2
f 1/7/3 7/1/3 4/3/3
f 7/1/1 6/8/1 5/2/1
f 2/4/2 6/9/2 7/5/2
f 1/7/3 3/10/3 7/1/3
